# xmcd CD database file
#
# Track frame offsets:
#	150
#	723
#	20746
#	45135
#	71010
#	85216
#	110279
#	133913
#	159796
#	183272
#	205109
#	225167
#	250377
#	267804
#	291403
#	315297
#
# Disc length: 4428 seconds
#
# Revision: 1
# Processed by: cddbd v1.5.2PL0 Copyright (c) Steve Scherf et al.
# Submitted via: CDex 1.51
#
DISCID=c9114a10
DTITLE=Alex Capus - Léon and Louise
DYEAR=2011
DGENRE=Hörbuch
TTITLE0=101
TTITLE1=102
TTITLE2=103
TTITLE3=104
TTITLE4=105
TTITLE5=106
TTITLE6=107
TTITLE7=108
TTITLE8=109
TTITLE9=110
TTITLE10=111
TTITLE11=112
TTITLE12=113
TTITLE13=114
TTITLE14=115
TTITLE15=116
EXTD=YEAR: 2011
EXTT0=
EXTT1=
EXTT2=
EXTT3=
EXTT4=
EXTT5=
EXTT6=
EXTT7=
EXTT8=
EXTT9=
EXTT10=
EXTT11=
EXTT12=
EXTT13=
EXTT14=
EXTT15=
PLAYORDER=
